<svg width="61" height="13" viewBox="0 0 61 13" fill="none" xmlns="http://www.w3.org/2000/svg">
<path d="M8.11667 0.63375C7.82778 0.449583 7.52778 0.297917 7.21667 0.17875C6.97886 0.0876599 6.74754 0.0313843 6.52271 0.00992271C7.00678 0.0631675 7.33023 0.330693 7.35 0.8125C7.37222 1.365 7.16111 1.64125 6.71667 1.64125L5.9 1.64125C6.31071 1.64139 6.6001 1.75514 6.76667 1.9825C6.93333 2.21 7.01666 2.45917 7.01666 2.73V3.5425C7.01666 4.05167 7.34444 4.30625 8 4.30625C8.66667 4.30625 9 4.05167 9 3.5425V2.58375C9 2.15042 8.92222 1.77125 8.76667 1.44625C8.61111 1.11042 8.38889 0.839583 8.1 0.63375H8.11667Z" fill="#460479"/>
<path d="M0 4.5175C0 5.37333 0.3 6.02875 0.9 6.48375C1.26138 6.72719 1.61694 6.89865 1.96667 6.99813V1.64125L3.1 1.64125H5.9L6.71667 1.64125C7.16111 1.64125 7.37222 1.365 7.35 0.8125C7.33023 0.330693 7.00678 0.0631675 6.52271 0.00992271C6.45341 0.00330757 6.38473 0 6.31667 0H2.68333C2.39452 3.28538e-05 2.09436 0.0596161 1.78333 0.17875C1.47222 0.297917 1.17222 0.449583 0.883333 0.63375H0.9C0.611111 0.839583 0.388889 1.11042 0.233333 1.44625C0.0778158 1.77117 3.80599e-05 2.15055 0 2.58375V4.5175Z" fill="#460479"/>
<path d="M0.233333 1.44625C0.388889 1.11042 0.611111 0.839583 0.9 0.63375H0.883333C1.17222 0.449583 1.47222 0.297917 1.78333 0.17875C2.09436 0.0596161 2.39452 3.28538e-05 2.68333 0H1.05C0.638889 0 0.361111 0.102917 0.216667 0.30875C0.0722221 0.50375 0 0.725833 0 0.975V2.58375C3.80599e-05 2.15055 0.0778158 1.77117 0.233333 1.44625Z" fill="#460479"/>
<path d="M1.98333 2.73C1.98333 2.45917 2.06667 2.21 2.23333 1.9825C2.3999 1.75514 2.68929 1.64139 3.1 1.64125L1.96667 1.64125V6.99813C2.20834 7.06688 2.44723 7.10125 2.68333 7.10125H3.81888C3.58407 6.85038 3.46667 6.54705 3.46667 6.19125C3.46667 5.92312 3.53334 5.68479 3.66669 5.47625H3.1C2.68889 5.47625 2.4 5.36792 2.23333 5.15125C2.06667 4.92375 1.98333 4.66917 1.98333 4.3875V2.73Z" fill="#460479"/>
<path fill-rule="evenodd" clip-rule="evenodd" d="M6.0139 5.47625C5.95922 5.39323 5.89347 5.31739 5.81667 5.24875C5.69444 5.11875 5.55 5.02125 5.38333 4.95625C5.21667 4.88042 5.03333 4.8425 4.83333 4.8425C4.45556 4.8425 4.13333 4.9725 3.86667 5.2325C3.78857 5.30864 3.72192 5.38989 3.66669 5.47625C3.53334 5.68479 3.46667 5.92312 3.46667 6.19125C3.46667 6.54705 3.58407 6.85038 3.81888 7.10125C3.8343 7.11773 3.85023 7.13398 3.86667 7.15C4.13333 7.41 4.45556 7.54 4.83333 7.54C5.03333 7.54 5.21667 7.5075 5.38333 7.4425C5.55 7.36667 5.69444 7.26917 5.81667 7.15C5.83442 7.13413 5.85158 7.11788 5.86815 7.10125C5.97604 6.99295 6.05888 6.86836 6.11667 6.7275C6.19444 6.55417 6.23333 6.37542 6.23333 6.19125C6.23333 6.00708 6.19444 5.83375 6.11667 5.67125C6.0884 5.60236 6.05415 5.53736 6.0139 5.47625ZM0.983333 13C1.35149 13 1.61627 12.918 1.77767 12.754C1.90367 12.626 1.96667 12.448 1.96667 12.22V9.04553V6.99813C1.61694 6.89865 1.26138 6.72719 0.9 6.48375C0.3 6.02875 0 5.37333 0 4.5175V9.23V10.3025V12.22C0 12.74 0.327778 13 0.983333 13ZM6.33513 0H6.31667C6.38473 0 6.45341 0.00330757 6.52271 0.00992271C6.46257 0.00330756 6.39995 0 6.33513 0Z" fill="#FF385C"/>
<path d="M7.21667 5.655C6.90556 5.53583 6.60556 5.47625 6.31667 5.47625H6.0139C6.05415 5.53736 6.0884 5.60236 6.11667 5.67125C6.19444 5.83375 6.23333 6.00708 6.23333 6.19125C6.23333 6.37542 6.19444 6.55417 6.11667 6.7275C6.05888 6.86836 5.97604 6.99295 5.86815 7.10125H5.9C6.31111 7.10125 6.6 7.22042 6.76667 7.45875C6.93333 7.68625 7.01666 7.93542 7.01666 8.20625V10.1725C7.01666 10.4542 6.93333 10.7087 6.76667 10.9362C6.6 11.1637 6.31111 11.2775 5.9 11.2775H3.1C2.68889 11.2775 2.4 11.1637 2.23333 10.9362C2.06667 10.7087 1.98333 10.4542 1.98333 10.1725V9.23C1.98333 9.16427 1.97778 9.10278 1.96667 9.04553V12.22C1.96667 12.448 1.90367 12.626 1.77767 12.754L1.78333 12.7562C2.09444 12.8646 2.39444 12.9187 2.68333 12.9187H6.31667C6.60556 12.9187 6.9 12.8646 7.2 12.7562C7.51111 12.6371 7.81111 12.4746 8.1 12.2687C8.7 11.8354 9 11.18 9 10.3025V8.07625C9 7.64292 8.92222 7.25833 8.76667 6.9225C8.61111 6.58667 8.38889 6.32125 8.1 6.12625H8.11667C7.82778 5.93125 7.52778 5.77417 7.21667 5.655Z" fill="#460479"/>
<path d="M13.388 10.496C13.388 10.88 13.152 11.072 12.68 11.072C12.208 11.072 11.972 10.88 11.972 10.496V2.192C11.972 2.008 12.024 1.844 12.128 1.7C12.232 1.548 12.432 1.472 12.728 1.472H16.808C17.096 1.472 17.248 1.672 17.264 2.072C17.28 2.48 17.128 2.684 16.808 2.684H13.388V10.496ZM16.46 6.044C16.46 6.18 16.432 6.312 16.376 6.44C16.328 6.56 16.256 6.664 16.16 6.752C16.072 6.84 15.968 6.912 15.848 6.968C15.728 7.016 15.596 7.04 15.452 7.04C15.18 7.04 14.948 6.944 14.756 6.752C14.564 6.56 14.468 6.324 14.468 6.044C14.468 5.764 14.564 5.528 14.756 5.336C14.948 5.144 15.18 5.048 15.452 5.048C15.596 5.048 15.728 5.076 15.848 5.132C15.968 5.18 16.072 5.252 16.16 5.348C16.256 5.436 16.328 5.54 16.376 5.66C16.432 5.78 16.46 5.908 16.46 6.044Z" fill="#FF385C"/>
<path d="M19.8174 10.496C19.8174 10.88 19.5974 11.072 19.1574 11.072C18.7094 11.072 18.4854 10.88 18.4854 10.496V4.304C18.4854 3.92 18.7094 3.728 19.1574 3.728C19.5974 3.728 19.8174 3.92 19.8174 4.304V10.496ZM20.0694 2.216C20.0694 2.472 19.9814 2.688 19.8054 2.864C19.6294 3.04 19.4134 3.128 19.1574 3.128C18.9014 3.128 18.6814 3.04 18.4974 2.864C18.3214 2.688 18.2334 2.472 18.2334 2.216C18.2334 1.952 18.3214 1.732 18.4974 1.556C18.6814 1.38 18.9014 1.292 19.1574 1.292C19.4134 1.292 19.6294 1.38 19.8054 1.556C19.9814 1.732 20.0694 1.952 20.0694 2.216Z" fill="#FF385C"/>
<path d="M25.3848 6.8C25.5848 6.8 25.7968 6.848 26.0208 6.944C26.2528 7.032 26.4688 7.144 26.6688 7.28H26.6568C26.8648 7.432 27.0248 7.628 27.1368 7.868C27.2488 8.108 27.3048 8.396 27.3048 8.732V9.092C27.3048 9.748 27.0888 10.232 26.6568 10.544C26.4488 10.704 26.2368 10.82 26.0208 10.892C25.8048 10.964 25.5928 11 25.3848 11H23.3448C23.1368 11 22.9248 10.964 22.7088 10.892C22.4928 10.82 22.2808 10.704 22.0728 10.544C21.6408 10.24 21.4248 9.756 21.4248 9.092V8.948C21.4248 8.604 21.6448 8.436 22.0848 8.444C22.5328 8.444 22.7568 8.612 22.7568 8.948V9.08C22.7568 9.272 22.8168 9.452 22.9368 9.62C23.0568 9.788 23.2688 9.872 23.5728 9.872H25.1568C25.4608 9.872 25.6728 9.788 25.7928 9.62C25.9128 9.452 25.9728 9.272 25.9728 9.08V8.744C25.9728 8.64 25.9568 8.54 25.9248 8.444C25.9008 8.348 25.8568 8.264 25.7928 8.192C25.7288 8.112 25.6448 8.048 25.5408 8C25.4368 7.952 25.3088 7.928 25.1568 7.928H23.4048C22.9968 7.928 22.5688 7.784 22.1208 7.496C21.6968 7.224 21.4848 6.756 21.4848 6.092V5.684C21.4848 5.364 21.5408 5.084 21.6528 4.844C21.7648 4.596 21.9248 4.396 22.1328 4.244H22.1208C22.3208 4.108 22.5328 3.996 22.7568 3.908C22.9808 3.82 23.1968 3.776 23.4048 3.776H25.3248C25.5328 3.776 25.7448 3.82 25.9608 3.908C26.1848 3.996 26.4008 4.108 26.6088 4.244H26.5968C26.8048 4.396 26.9648 4.596 27.0768 4.844C27.1888 5.084 27.2448 5.364 27.2448 5.684V5.792C27.2448 5.96 27.1888 6.084 27.0768 6.164C26.9648 6.236 26.8008 6.276 26.5848 6.284C26.1448 6.292 25.9248 6.128 25.9248 5.792V5.696C25.9248 5.496 25.8608 5.316 25.7328 5.156C25.6128 4.988 25.4048 4.904 25.1088 4.904H23.6208C23.3248 4.904 23.1128 4.988 22.9848 5.156C22.8648 5.316 22.8048 5.496 22.8048 5.696V5.984C22.8048 6.192 22.8648 6.38 22.9848 6.548C23.1128 6.716 23.3248 6.8 23.6208 6.8H25.3848Z" fill="#FF385C"/>
<path d="M30.1876 10.496C30.1876 10.88 29.9676 11.072 29.5276 11.072C29.0876 11.072 28.8676 10.88 28.8676 10.496V1.976C28.8676 1.592 29.0876 1.4 29.5276 1.4C29.9676 1.4 30.1876 1.592 30.1876 1.976V3.776H32.7196C33.1276 3.776 33.5516 3.928 33.9916 4.232C34.4236 4.536 34.6396 5.016 34.6396 5.672V10.496C34.6396 10.88 34.4196 11.072 33.9796 11.072C33.5396 11.072 33.3196 10.88 33.3196 10.496V5.78C33.3196 5.572 33.2556 5.372 33.1276 5.18L33.1396 5.192C33.0356 5 32.8236 4.904 32.5036 4.904H30.1876V10.496Z" fill="#FF385C"/>
<path d="M40.883 5.516C41.091 5.516 41.307 5.56 41.531 5.648C41.755 5.736 41.971 5.852 42.179 5.996H42.167C42.375 6.14 42.535 6.336 42.647 6.584C42.759 6.832 42.815 7.116 42.815 7.436V9.08C42.815 9.728 42.599 10.212 42.167 10.532C41.959 10.684 41.743 10.804 41.519 10.892C41.303 10.972 41.091 11.012 40.883 11.012H38.267C38.059 11.012 37.843 10.972 37.619 10.892C37.403 10.804 37.191 10.684 36.983 10.532C36.551 10.212 36.335 9.728 36.335 9.08V8.288C36.335 7.912 36.571 7.724 37.043 7.724C37.523 7.724 37.763 7.912 37.763 8.288V8.984C37.763 9.192 37.823 9.38 37.943 9.548C38.063 9.716 38.271 9.8 38.567 9.8H40.583C40.879 9.8 41.087 9.716 41.207 9.548C41.327 9.38 41.387 9.192 41.387 8.984V7.532C41.387 7.332 41.327 7.148 41.207 6.98C41.087 6.804 40.879 6.716 40.583 6.716H38.267C37.851 6.716 37.423 6.564 36.983 6.26C36.551 5.924 36.335 5.44 36.335 4.808V3.38C36.335 3.06 36.391 2.78 36.503 2.54C36.615 2.292 36.775 2.092 36.983 1.94H36.971C37.179 1.804 37.395 1.692 37.619 1.604C37.843 1.516 38.059 1.472 38.267 1.472H40.883C41.091 1.472 41.307 1.516 41.531 1.604C41.755 1.692 41.971 1.804 42.179 1.94H42.167C42.375 2.092 42.535 2.292 42.647 2.54C42.759 2.78 42.815 3.06 42.815 3.38V4.088C42.815 4.464 42.575 4.652 42.095 4.652C41.623 4.652 41.387 4.464 41.387 4.088V3.488C41.387 3.288 41.327 3.104 41.207 2.936C41.087 2.768 40.879 2.684 40.583 2.684H38.567C38.271 2.684 38.063 2.768 37.943 2.936C37.823 3.104 37.763 3.288 37.763 3.488V4.712C37.763 4.92 37.823 5.108 37.943 5.276C38.063 5.436 38.271 5.516 38.567 5.516H40.883Z" fill="#FF385C"/>
<path d="M46.1662 4.904V9.272C46.1662 9.48 46.2102 9.64 46.2982 9.752C46.3862 9.864 46.5742 9.92 46.8622 9.92H47.1742C47.4862 9.92 47.6342 10.104 47.6182 10.472C47.6182 10.848 47.4702 11.036 47.1742 11.036H46.7782C46.5222 11.036 46.2822 11.004 46.0582 10.94C45.8342 10.868 45.6182 10.768 45.4102 10.64V10.652C45.0182 10.396 44.8222 9.94 44.8222 9.284V4.904H44.3542C44.0662 4.904 43.9142 4.716 43.8982 4.34C43.8982 3.964 44.0502 3.776 44.3542 3.776H44.8222V2.492C44.8222 2.108 45.0502 1.916 45.5062 1.916C45.9462 1.916 46.1662 2.108 46.1662 2.492V3.776H47.1622C47.4742 3.776 47.6222 3.964 47.6062 4.34C47.6062 4.716 47.4582 4.904 47.1622 4.904H46.1662Z" fill="#FF385C"/>
<path d="M50.4726 11C50.2246 11 49.9886 10.968 49.7646 10.904C49.5406 10.832 49.3246 10.732 49.1166 10.604V10.616C48.7246 10.368 48.5286 9.912 48.5286 9.248V8.66C48.5286 8.332 48.5846 8.048 48.6966 7.808C48.8166 7.56 48.9806 7.364 49.1886 7.22H49.1766C49.3766 7.084 49.5886 6.984 49.8126 6.92C50.0366 6.848 50.2526 6.812 50.4606 6.812H53.1126V5.696C53.1126 5.496 53.0486 5.316 52.9206 5.156C52.8006 4.988 52.5926 4.904 52.2966 4.904H50.8926C50.5886 4.904 50.3766 4.98 50.2566 5.132C50.1446 5.276 50.0886 5.448 50.0886 5.648V5.744C50.0886 6.16 49.8646 6.368 49.4166 6.368C48.9686 6.368 48.7446 6.16 48.7446 5.744V5.636C48.7446 5.308 48.8006 5.032 48.9126 4.808C49.0326 4.584 49.1926 4.396 49.3926 4.244H49.3806C49.5886 4.108 49.8046 3.996 50.0286 3.908C50.2606 3.82 50.4806 3.776 50.6886 3.776H52.5126C52.7126 3.776 52.9246 3.82 53.1486 3.908C53.3806 3.996 53.5966 4.108 53.7966 4.244H53.7846C53.9926 4.396 54.1526 4.596 54.2646 4.844C54.3766 5.084 54.4326 5.364 54.4326 5.684V10.496C54.4326 10.88 54.2126 11.072 53.7726 11.072C53.6846 11.072 53.6006 11.068 53.5206 11.06C53.4486 11.052 53.3806 11.032 53.3166 11C53.2606 10.96 53.2126 10.908 53.1726 10.844C53.1406 10.772 53.1246 10.68 53.1246 10.568L53.1126 7.94H50.6886C50.5126 7.94 50.3766 7.96 50.2806 8C50.1846 8.04 50.1086 8.104 50.0526 8.192C49.9886 8.328 49.9406 8.436 49.9086 8.516C49.8846 8.588 49.8726 8.672 49.8726 8.768V9.236C49.8726 9.444 49.9326 9.604 50.0526 9.716C50.1806 9.82 50.3966 9.872 50.7006 9.872H52.0446C52.3406 9.872 52.4886 10.06 52.4886 10.436C52.4886 10.596 52.4526 10.732 52.3806 10.844C52.3086 10.948 52.1966 11 52.0446 11H50.4726Z" fill="#FF385C"/>
<path d="M56.3688 12.68C56.0888 12.68 55.9408 12.492 55.9248 12.116C55.9248 11.74 56.0728 11.552 56.3688 11.552H56.8968C57.1768 11.552 57.3608 11.468 57.4488 11.3L57.6168 10.856L57.6768 10.664L55.3368 4.532V4.544C55.2728 4.352 55.2848 4.188 55.3728 4.052C55.4688 3.916 55.6128 3.816 55.8048 3.752C55.9488 3.712 56.0648 3.692 56.1528 3.692C56.3848 3.692 56.5288 3.828 56.5848 4.1L57.5328 6.464L58.3368 8.432L59.6208 4.124C59.6928 3.836 59.8608 3.692 60.1248 3.692C60.1888 3.692 60.2928 3.712 60.4368 3.752C60.6288 3.808 60.7648 3.9 60.8448 4.028C60.9328 4.156 60.9528 4.308 60.9048 4.484C60.5448 5.708 60.1768 6.94 59.8008 8.18C59.4328 9.42 59.0688 10.648 58.7088 11.864C58.6688 11.952 58.6048 12.04 58.5168 12.128C58.4368 12.224 58.3288 12.312 58.1928 12.392C58.0568 12.48 57.8888 12.548 57.6888 12.596C57.4888 12.652 57.2568 12.68 56.9928 12.68H56.3688Z" fill="#FF385C"/>
</svg>
